<svg xmlns="http://www.w3.org/2000/svg" width="204" height="28" fill="none"><path fill="#686666" d="M1.578 18.409V9.954h3.188c1.588 0 2.713 1.095 2.713 2.7v.012c0 1.606-1.125 2.725-2.713 2.725H2.633v3.018zm2.918-7.518H2.633v3.563h1.863c1.207 0 1.904-.663 1.904-1.776v-.012c0-1.113-.697-1.775-1.904-1.775m7.002 7.629c-1.799 0-2.912-1.242-2.912-3.264v-.011c0-2.028 1.113-3.264 2.912-3.264s2.912 1.236 2.912 3.264v.011c0 2.022-1.113 3.264-2.912 3.264m0-.902c1.195 0 1.87-.873 1.87-2.362v-.011c0-1.494-.675-2.362-1.87-2.362s-1.87.868-1.87 2.362v.011c0 1.489.675 2.362 1.87 2.362m5.479.79-1.77-6.316h1.02l1.242 5.051h.093l1.413-5.05h.966l1.413 5.05h.093l1.242-5.05h1.014l-1.77 6.316h-1.025l-1.412-4.887h-.094l-1.406 4.887zm10.418.112c-1.805 0-2.895-1.266-2.895-3.246v-.006c0-1.951 1.113-3.287 2.83-3.287s2.76 1.277 2.76 3.164v.399h-4.547c.03 1.306.75 2.068 1.875 2.068.855 0 1.383-.404 1.553-.785l.023-.053h1.02l-.012.047c-.217.855-1.12 1.699-2.607 1.699m-.07-5.63c-.938 0-1.653.638-1.764 1.839h3.492c-.106-1.248-.797-1.84-1.729-1.84m4.347 5.519v-6.317h1.02v.938h.093c.24-.662.832-1.049 1.688-1.049.193 0 .41.023.51.041v.99a3.7 3.7 0 0 0-.627-.058c-.973 0-1.665.615-1.665 1.54v3.915zm6.973.111c-1.805 0-2.895-1.266-2.895-3.246v-.006c0-1.951 1.113-3.287 2.83-3.287s2.76 1.277 2.76 3.164v.399h-4.547c.03 1.306.75 2.068 1.875 2.068.855 0 1.383-.404 1.553-.785l.023-.053h1.02l-.012.047c-.217.855-1.12 1.699-2.608 1.699m-.07-5.63c-.938 0-1.653.638-1.765 1.839h3.493c-.106-1.248-.797-1.84-1.729-1.84m6.679 5.63c-1.6 0-2.648-1.295-2.648-3.264v-.011c0-1.98 1.042-3.264 2.648-3.264.867 0 1.623.434 1.969 1.107h.093V9.584h1.02v8.825h-1.02V17.4h-.093c-.387.703-1.09 1.119-1.97 1.119m.234-.902c1.149 0 1.852-.903 1.852-2.362v-.011c0-1.46-.703-2.362-1.852-2.362-1.154 0-1.84.89-1.84 2.362v.011c0 1.471.686 2.362 1.84 2.362m8.309.79V9.955h3.234c1.553 0 2.502.814 2.502 2.103v.012c0 .873-.644 1.67-1.459 1.816v.094c1.154.147 1.887.938 1.887 2.05v.012c0 1.483-1.066 2.368-2.865 2.368zm3.012-7.523h-1.957v2.713h1.687c1.277 0 1.928-.457 1.928-1.348v-.011c0-.856-.61-1.354-1.658-1.354m.029 3.621h-1.986v2.971h2.086c1.271 0 1.939-.516 1.939-1.488v-.012c0-.973-.692-1.47-2.04-1.47m5.256 6.118c-.135 0-.31-.012-.451-.036v-.838c.123.024.28.03.422.03.58 0 .931-.264 1.16-.99l.117-.375-2.338-6.323h1.09l1.734 5.198h.094l1.728-5.198h1.073l-2.467 6.703c-.522 1.418-1.043 1.828-2.162 1.828"/><g clip-path="url(#a)"><path fill="#0E0F12" d="m111.667 22.625-5.713-15.822h3.492l3.967 11.753 3.751-11.753h3.234l-5.519 15.822zM125.982 22.896a6.2 6.2 0 0 1-2.856-.666q-1.304-.667-2.081-2.035-.776-1.367-.776-3.447v-.452q0-1.989.744-3.3.743-1.311 1.994-1.967 1.25-.655 2.759-.655 2.695 0 4.097 1.491 1.401 1.492 1.401 4.318v1.265h-8.085q.043 1.063.442 1.73.4.666 1.025.971a3 3 0 0 0 1.336.306q1.1 0 1.66-.34.56-.338.798-.994h2.608q-.344 1.876-1.703 2.825t-3.363.95m-.108-10.08a3.8 3.8 0 0 0-1.294.225 1.92 1.92 0 0 0-.991.802q-.367.577-.41 1.526h5.325q-.021-1.017-.377-1.57a1.87 1.87 0 0 0-.937-.769 3.8 3.8 0 0 0-1.315-.215zM133.334 22.625v-11.98h2.586v1.786q.238-.519.647-.972a3.6 3.6 0 0 1 1.013-.768q.603-.317 1.337-.317.41 0 .701.045t.377.09v2.645a3.6 3.6 0 0 0-.55-.17 4 4 0 0 0-.894-.078q-.863 0-1.391.384a2.18 2.18 0 0 0-.765 1.006 3.7 3.7 0 0 0-.237 1.345v6.984h-2.825zM143.358 9.492q-.754 0-1.24-.497-.485-.496-.485-1.288t.485-1.288q.486-.497 1.219-.497.776 0 1.261.497.485.498.485 1.288 0 .791-.485 1.288-.485.498-1.24.497m-1.401 13.133v-11.98h2.824v11.98zM147.584 22.625V6.803h2.824v5.492q.259-.45.722-.893a3.8 3.8 0 0 1 1.164-.734q.7-.294 1.693-.294 2.09 0 3.115 1.175 1.024 1.176 1.024 3.39v7.686h-2.845V15.64q0-1.333-.529-2.034-.528-.7-1.8-.7-.906 0-1.466.384a2.24 2.24 0 0 0-.819 1.006 3.5 3.5 0 0 0-.259 1.345v6.984h-2.825zM164.529 22.896q-1.983 0-2.996-1.187-1.014-1.186-1.014-3.673v-7.392h2.825v6.985q0 1.356.506 2.045.506.69 1.715.69.862 0 1.39-.385.528-.384.787-.994.26-.612.259-1.357v-6.984h2.846v11.98h-2.63v-1.786q-.41.836-1.304 1.447-.895.61-2.383.61zM179.793 22.896q-1.424 0-2.35-.61t-1.359-1.424v1.763h-2.63V6.803h2.825v5.492a4.2 4.2 0 0 1 1.433-1.39q.895-.53 2.081-.53 2.284 0 3.568 1.48 1.283 1.48 1.283 4.441v.452q0 2.058-.593 3.425t-1.671 2.045q-1.078.678-2.587.678m-.669-2.531q1.12 0 1.875-.893t.755-2.724v-.452q0-1.695-.722-2.542-.722-.849-1.908-.848-.82 0-1.466.328a2.4 2.4 0 0 0-1.013.972q-.367.644-.367 1.639V17.2q0 1.063.356 1.774.356.713 1.002 1.051.647.34 1.488.34zM191.326 22.896q-1.402 0-2.35-.305t-1.563-.837a3.3 3.3 0 0 1-.905-1.209 4.6 4.6 0 0 1-.356-1.424h2.846q.108.588.668.96.56.374 1.66.374 1.25 0 1.789-.362.54-.36.539-.927 0-.407-.237-.667t-.84-.452q-.604-.192-1.704-.396a12 12 0 0 1-1.735-.373 4.7 4.7 0 0 1-1.391-.666 3 3 0 0 1-.938-1.074q-.334-.645-.334-1.57 0-.996.572-1.81.57-.813 1.659-1.299 1.089-.485 2.62-.485 1.659 0 2.652.542.991.543 1.487 1.402.496.86.604 1.83h-2.846q-.173-.655-.668-.995-.496-.338-1.229-.338-1.078 0-1.542.35t-.464.87c0 .346.169.64.507.837q.507.294 2.08.52.97.135 1.801.395a5.5 5.5 0 0 1 1.455.69q.625.43.981 1.073.356.645.356 1.571 0 1.107-.571 1.955t-1.725 1.334q-1.153.486-2.878.486"/><path fill="#0441EB" d="M82.657 6.246c-1.106.67-1.485 2.152-.847 3.311l6.678 12.128c.638 1.159 2.052 1.556 3.158.887 1.106-.67 1.485-2.152.846-3.311L85.814 7.134c-.638-1.16-2.052-1.557-3.157-.888M97.306 5.921c-1.199 0-2.17 1.02-2.17 2.276 0 .436.116.844.319 1.19.622 1.092-.01 2.233-1.227 2.206h-.091c-1.216.027-1.849-1.114-1.227-2.205a2.35 2.35 0 0 0 .32-1.19c0-1.258-.971-2.277-2.17-2.277-1.2 0-2.171 1.02-2.171 2.276 0 1.257.972 2.277 2.17 2.277h.047c1.216-.028 1.848 1.114 1.226 2.205a2.35 2.35 0 0 0-.32 1.19c0 1.257.973 2.276 2.171 2.276 1.2 0 2.172-1.02 2.172-2.277a2.35 2.35 0 0 0-.32-1.19c-.622-1.09.01-2.232 1.227-2.205h.045c1.2 0 2.171-1.02 2.171-2.276 0-1.257-.972-2.276-2.172-2.276"/></g><defs><clipPath id="a"><path fill="#fff" d="M81.5 5.909h115v17h-115z"/></clipPath></defs></svg>