<svg xmlns="http://www.w3.org/2000/svg" width="204" height="28" fill="none"><path fill="#fff" d="M1.578 18.03V9.575h3.188c1.588 0 2.713 1.096 2.713 2.701v.012c0 1.606-1.125 2.725-2.713 2.725H2.633v3.017zm2.918-7.517H2.633v3.562h1.863c1.207 0 1.904-.662 1.904-1.775v-.012c0-1.113-.697-1.775-1.904-1.775m7.002 7.629c-1.799 0-2.912-1.243-2.912-3.264v-.012c0-2.027 1.113-3.264 2.912-3.264s2.912 1.237 2.912 3.264v.012c0 2.021-1.113 3.264-2.912 3.264m0-.903c1.195 0 1.87-.873 1.87-2.361v-.012c0-1.494-.675-2.361-1.87-2.361s-1.87.867-1.87 2.361v.012c0 1.488.675 2.361 1.87 2.361m5.479.791-1.77-6.316h1.02l1.242 5.05h.093l1.413-5.05h.966l1.413 5.05h.093l1.242-5.05h1.014l-1.77 6.316h-1.025l-1.412-4.886h-.094l-1.406 4.886zm10.418.112c-1.805 0-2.895-1.266-2.895-3.246v-.006c0-1.952 1.113-3.288 2.83-3.288s2.76 1.278 2.76 3.165v.398h-4.547c.03 1.307.75 2.068 1.875 2.068.855 0 1.383-.404 1.553-.785l.023-.053h1.02l-.012.047c-.217.856-1.12 1.7-2.607 1.7m-.07-5.631c-.938 0-1.653.638-1.764 1.84h3.492c-.106-1.249-.797-1.84-1.729-1.84m4.347 5.52v-6.317h1.02v.937h.093c.24-.662.832-1.049 1.688-1.049.193 0 .41.024.51.042v.99a3.7 3.7 0 0 0-.627-.059c-.973 0-1.665.615-1.665 1.541v3.914zm6.973.11c-1.805 0-2.895-1.265-2.895-3.245v-.006c0-1.952 1.113-3.288 2.83-3.288s2.76 1.278 2.76 3.165v.398h-4.547c.03 1.307.75 2.068 1.875 2.068.855 0 1.383-.404 1.553-.785l.023-.053h1.02l-.012.047c-.217.856-1.12 1.7-2.608 1.7m-.07-5.63c-.938 0-1.653.638-1.765 1.84h3.493c-.106-1.249-.797-1.84-1.729-1.84m6.679 5.63c-1.6 0-2.648-1.294-2.648-3.263v-.012c0-1.98 1.042-3.264 2.648-3.264.867 0 1.623.434 1.969 1.108h.093V9.206h1.02v8.824h-1.02v-1.008h-.093c-.387.704-1.09 1.12-1.97 1.12m.234-.902c1.149 0 1.852-.902 1.852-2.361v-.012c0-1.459-.703-2.361-1.852-2.361-1.154 0-1.84.89-1.84 2.361v.012c0 1.47.686 2.361 1.84 2.361m8.309.791V9.575h3.234c1.553 0 2.502.815 2.502 2.104v.011c0 .874-.644 1.67-1.459 1.817v.094c1.154.146 1.887.937 1.887 2.05v.012c0 1.482-1.066 2.367-2.865 2.367zm3.012-7.523h-1.957v2.713h1.687c1.277 0 1.928-.457 1.928-1.348v-.012c0-.855-.61-1.353-1.658-1.353m.029 3.62h-1.986V17.1h2.086c1.271 0 1.939-.516 1.939-1.489V15.6c0-.973-.692-1.471-2.04-1.471m5.256 6.118c-.135 0-.31-.012-.451-.035v-.838c.123.023.28.03.422.03.58 0 .931-.264 1.16-.99l.117-.376-2.338-6.322h1.09l1.734 5.197h.094l1.728-5.197h1.073l-2.467 6.703c-.522 1.418-1.043 1.828-2.162 1.828"/><g clip-path="url(#a)"><path fill="#fff" d="m111.667 22.246-5.713-15.822h3.493l3.966 11.754 3.751-11.754h3.234l-5.519 15.822zM125.982 22.518a6.2 6.2 0 0 1-2.857-.667q-1.303-.666-2.08-2.034-.776-1.367-.776-3.447v-.452q0-1.989.744-3.3.743-1.311 1.994-1.967t2.759-.656q2.693 0 4.097 1.492 1.4 1.492 1.401 4.317v1.266h-8.085q.043 1.062.442 1.729t1.024.972 1.337.305q1.1 0 1.66-.339.56-.338.798-.995h2.608q-.344 1.877-1.703 2.826t-3.363.949m-.108-10.081q-.669 0-1.294.225-.625.226-.991.803-.367.576-.41 1.526h5.325q-.021-1.017-.377-1.571a1.86 1.86 0 0 0-.938-.768 3.8 3.8 0 0 0-1.314-.215zM133.334 22.247v-11.98h2.586v1.786q.238-.52.647-.972a3.6 3.6 0 0 1 1.013-.769q.603-.316 1.337-.316.409 0 .701.045.291.045.377.09v2.645a3.6 3.6 0 0 0-.55-.17 4 4 0 0 0-.894-.079q-.863 0-1.391.385a2.17 2.17 0 0 0-.765 1.006 3.7 3.7 0 0 0-.238 1.345v6.984h-2.824zM143.358 9.114q-.754 0-1.24-.497-.485-.496-.485-1.288t.485-1.288q.486-.498 1.219-.498.775 0 1.261.497.485.498.485 1.289t-.485 1.288q-.486.497-1.24.497m-1.401 13.132v-11.98h2.823v11.98zM147.584 22.246V6.424h2.824v5.493q.259-.452.722-.893a3.8 3.8 0 0 1 1.164-.735q.7-.294 1.693-.294 2.09 0 3.115 1.176 1.024 1.176 1.024 3.39v7.685h-2.846v-6.984q0-1.333-.528-2.034t-1.8-.7q-.906 0-1.466.384a2.24 2.24 0 0 0-.82 1.006 3.5 3.5 0 0 0-.258 1.345v6.984h-2.825zM164.529 22.518q-1.983 0-2.996-1.187-1.014-1.186-1.014-3.674v-7.391h2.825v6.984q0 1.356.506 2.046.507.69 1.714.689.863 0 1.391-.384.528-.385.787-.995.26-.61.259-1.357v-6.984h2.846v11.98h-2.631v-1.786q-.409.837-1.304 1.447-.894.61-2.382.61zM179.792 22.518q-1.423 0-2.349-.61t-1.359-1.425v1.763h-2.63V6.424h2.825v5.493a4.2 4.2 0 0 1 1.433-1.39q.895-.531 2.08-.531 2.285 0 3.569 1.48 1.282 1.48 1.282 4.442v.452q0 2.057-.592 3.424-.594 1.368-1.671 2.046-1.078.678-2.587.678zm-.668-2.532q1.12 0 1.875-.893t.755-2.723v-.452q0-1.695-.722-2.543-.723-.847-1.908-.847-.82 0-1.466.327a2.4 2.4 0 0 0-1.013.972q-.367.645-.367 1.64v1.356q0 1.063.356 1.774t1.002 1.051 1.488.339M191.326 22.518q-1.402 0-2.35-.306-.949-.305-1.563-.836a3.3 3.3 0 0 1-.905-1.21 4.6 4.6 0 0 1-.356-1.424h2.846q.108.588.668.961t1.66.373q1.25 0 1.789-.362.54-.36.539-.927 0-.406-.237-.666t-.84-.452q-.604-.192-1.704-.396a12 12 0 0 1-1.735-.373 4.7 4.7 0 0 1-1.391-.667 3 3 0 0 1-.937-1.073q-.335-.644-.335-1.571 0-.995.572-1.809.57-.813 1.659-1.3 1.089-.485 2.62-.485 1.659 0 2.652.543.991.542 1.487 1.401.496.86.604 1.83h-2.846q-.173-.655-.668-.994t-1.229-.339q-1.078 0-1.542.35-.464.351-.464.87c0 .347.169.641.507.837q.507.294 2.08.52.97.136 1.801.396a5.4 5.4 0 0 1 1.455.689q.625.429.981 1.074.356.644.356 1.57 0 1.108-.571 1.956t-1.725 1.333q-1.153.487-2.878.487"/><path fill="#F5F5F5" d="M82.657 5.868c-1.106.67-1.485 2.152-.847 3.31l6.678 12.128c.639 1.16 2.052 1.556 3.158.887 1.106-.67 1.485-2.152.847-3.31L85.814 6.754c-.638-1.16-2.052-1.556-3.157-.887M97.306 5.543c-1.199 0-2.17 1.02-2.17 2.276 0 .436.116.844.319 1.19.622 1.091-.01 2.233-1.227 2.206h-.091c-1.216.027-1.849-1.114-1.227-2.205a2.35 2.35 0 0 0 .32-1.19c0-1.258-.971-2.277-2.17-2.277-1.2 0-2.171 1.02-2.171 2.276 0 1.257.972 2.276 2.17 2.276h.046c1.216-.027 1.849 1.114 1.227 2.205a2.35 2.35 0 0 0-.32 1.19c0 1.257.973 2.276 2.171 2.276 1.2 0 2.171-1.019 2.171-2.276a2.35 2.35 0 0 0-.32-1.19c-.621-1.09.01-2.232 1.227-2.205h.046c1.2 0 2.171-1.02 2.171-2.276 0-1.257-.972-2.276-2.172-2.276"/></g><defs><clipPath id="a"><path fill="#fff" d="M81.5 5.53h115v17h-115z"/></clipPath></defs></svg>